<mxfile host="app.diagrams.net" modified="2023-05-13T11:17:12.252Z" agent="Mozilla/5.0 (Windows NT 10.0; Win64; x64) AppleWebKit/537.36 (KHTML, like Gecko) Chrome/113.0.0.0 Safari/537.36 Edg/113.0.1774.35" etag="pB8-7O5P8Rf6eOMEC1vb" version="21.2.9" type="github">
  <diagram name="第 1 页" id="2KE3e0sI5M_i0R3wZd8V">
    <mxGraphModel dx="2019" dy="1156" grid="1" gridSize="10" guides="1" tooltips="1" connect="1" arrows="1" fold="1" page="1" pageScale="1" pageWidth="827" pageHeight="1169" math="0" shadow="0">
      <root>
        <mxCell id="0" />
        <mxCell id="1" parent="0" />
        <mxCell id="hp1ZqnCWCo9bEnDBB-Sz-35" value="" style="group" vertex="1" connectable="0" parent="1">
          <mxGeometry x="250" y="360" width="210" height="480" as="geometry" />
        </mxCell>
        <mxCell id="hp1ZqnCWCo9bEnDBB-Sz-29" value="" style="rounded=0;whiteSpace=wrap;html=1;fillColor=#D4E1F5;" vertex="1" parent="hp1ZqnCWCo9bEnDBB-Sz-35">
          <mxGeometry width="210" height="440" as="geometry" />
        </mxCell>
        <mxCell id="hp1ZqnCWCo9bEnDBB-Sz-30" value="&lt;font style=&quot;font-size: 36px;&quot;&gt;創新难点&lt;/font&gt;" style="text;html=1;strokeColor=none;fillColor=none;align=center;verticalAlign=middle;whiteSpace=wrap;rounded=0;" vertex="1" parent="hp1ZqnCWCo9bEnDBB-Sz-35">
          <mxGeometry x="20" y="450" width="170" height="30" as="geometry" />
        </mxCell>
        <mxCell id="hp1ZqnCWCo9bEnDBB-Sz-31" value="&lt;span style=&quot;font-size: 24px;&quot;&gt;異構設備屬&lt;br&gt;性差異明顯&lt;/span&gt;" style="rounded=0;whiteSpace=wrap;html=1;fillColor=#FFF4C3;strokeColor=none;" vertex="1" parent="hp1ZqnCWCo9bEnDBB-Sz-35">
          <mxGeometry x="20" y="40" width="170" height="60" as="geometry" />
        </mxCell>
        <mxCell id="hp1ZqnCWCo9bEnDBB-Sz-32" value="&lt;font style=&quot;font-size: 24px;&quot;&gt;内存池功能&lt;br&gt;邊界模糊&lt;br&gt;&lt;/font&gt;" style="rounded=0;whiteSpace=wrap;html=1;fillColor=#FFF4C3;strokeColor=none;" vertex="1" parent="hp1ZqnCWCo9bEnDBB-Sz-35">
          <mxGeometry x="20" y="140" width="170" height="60" as="geometry" />
        </mxCell>
        <mxCell id="hp1ZqnCWCo9bEnDBB-Sz-33" value="&lt;font style=&quot;font-size: 24px;&quot;&gt;分佈式内存與&lt;br&gt;網絡延遲巨大&lt;br&gt;&lt;/font&gt;" style="rounded=0;whiteSpace=wrap;html=1;fillColor=#FFF4C3;strokeColor=none;" vertex="1" parent="hp1ZqnCWCo9bEnDBB-Sz-35">
          <mxGeometry x="20" y="240" width="170" height="60" as="geometry" />
        </mxCell>
        <mxCell id="hp1ZqnCWCo9bEnDBB-Sz-34" value="&lt;font style=&quot;font-size: 24px;&quot;&gt;計算平臺與上層應用缺乏感知&lt;/font&gt;" style="rounded=0;whiteSpace=wrap;html=1;fillColor=#FFF4C3;strokeColor=none;" vertex="1" parent="hp1ZqnCWCo9bEnDBB-Sz-35">
          <mxGeometry x="20" y="340" width="170" height="60" as="geometry" />
        </mxCell>
        <mxCell id="hp1ZqnCWCo9bEnDBB-Sz-36" value="" style="group;strokeColor=none;" vertex="1" connectable="0" parent="1">
          <mxGeometry x="20" y="360" width="210" height="480" as="geometry" />
        </mxCell>
        <mxCell id="hp1ZqnCWCo9bEnDBB-Sz-1" value="" style="rounded=0;whiteSpace=wrap;html=1;fillColor=#D4E1F5;" vertex="1" parent="hp1ZqnCWCo9bEnDBB-Sz-36">
          <mxGeometry width="210" height="440" as="geometry" />
        </mxCell>
        <mxCell id="hp1ZqnCWCo9bEnDBB-Sz-4" value="&lt;font style=&quot;font-size: 36px;&quot;&gt;創新領域&lt;/font&gt;" style="text;html=1;strokeColor=none;fillColor=none;align=center;verticalAlign=middle;whiteSpace=wrap;rounded=0;" vertex="1" parent="hp1ZqnCWCo9bEnDBB-Sz-36">
          <mxGeometry x="27.5" y="450" width="155" height="30" as="geometry" />
        </mxCell>
        <mxCell id="hp1ZqnCWCo9bEnDBB-Sz-7" value="&lt;font style=&quot;font-size: 24px;&quot;&gt;文件存儲&lt;br&gt;管理方面&lt;/font&gt;" style="rounded=0;whiteSpace=wrap;html=1;fillColor=#FFF4C3;strokeColor=none;" vertex="1" parent="hp1ZqnCWCo9bEnDBB-Sz-36">
          <mxGeometry x="20" y="40" width="170" height="60" as="geometry" />
        </mxCell>
        <mxCell id="hp1ZqnCWCo9bEnDBB-Sz-8" value="&lt;font style=&quot;font-size: 24px;&quot;&gt;内存數據&lt;br&gt;管理方面&lt;/font&gt;" style="rounded=0;whiteSpace=wrap;html=1;fillColor=#FFF4C3;strokeColor=none;" vertex="1" parent="hp1ZqnCWCo9bEnDBB-Sz-36">
          <mxGeometry x="20" y="140" width="170" height="60" as="geometry" />
        </mxCell>
        <mxCell id="hp1ZqnCWCo9bEnDBB-Sz-9" value="&lt;font style=&quot;font-size: 24px;&quot;&gt;系統網絡&lt;br&gt;優化方面&lt;/font&gt;" style="rounded=0;whiteSpace=wrap;html=1;fillColor=#FFF4C3;strokeColor=none;" vertex="1" parent="hp1ZqnCWCo9bEnDBB-Sz-36">
          <mxGeometry x="20" y="240" width="170" height="60" as="geometry" />
        </mxCell>
        <mxCell id="hp1ZqnCWCo9bEnDBB-Sz-10" value="&lt;font style=&quot;font-size: 24px;&quot;&gt;系統技術示&lt;br&gt;範應用方面&lt;/font&gt;" style="rounded=0;whiteSpace=wrap;html=1;fillColor=#FFF4C3;strokeColor=none;" vertex="1" parent="hp1ZqnCWCo9bEnDBB-Sz-36">
          <mxGeometry x="20" y="340" width="170" height="60" as="geometry" />
        </mxCell>
        <mxCell id="hp1ZqnCWCo9bEnDBB-Sz-37" value="" style="group" vertex="1" connectable="0" parent="1">
          <mxGeometry x="480" y="360" width="210" height="480" as="geometry" />
        </mxCell>
        <mxCell id="hp1ZqnCWCo9bEnDBB-Sz-38" value="" style="rounded=0;whiteSpace=wrap;html=1;fillColor=#D4E1F5;" vertex="1" parent="hp1ZqnCWCo9bEnDBB-Sz-37">
          <mxGeometry width="210" height="440" as="geometry" />
        </mxCell>
        <mxCell id="hp1ZqnCWCo9bEnDBB-Sz-39" value="&lt;font style=&quot;font-size: 36px;&quot;&gt;創新方案&lt;/font&gt;" style="text;html=1;strokeColor=none;fillColor=none;align=center;verticalAlign=middle;whiteSpace=wrap;rounded=0;" vertex="1" parent="hp1ZqnCWCo9bEnDBB-Sz-37">
          <mxGeometry x="27.5" y="450" width="155" height="30" as="geometry" />
        </mxCell>
        <mxCell id="hp1ZqnCWCo9bEnDBB-Sz-40" value="&lt;font style=&quot;font-size: 24px;&quot;&gt;多層次存儲系統元數據管理策略&lt;/font&gt;" style="rounded=0;whiteSpace=wrap;html=1;fillColor=#FFF4C3;strokeColor=none;" vertex="1" parent="hp1ZqnCWCo9bEnDBB-Sz-37">
          <mxGeometry x="20" y="40" width="170" height="60" as="geometry" />
        </mxCell>
        <mxCell id="hp1ZqnCWCo9bEnDBB-Sz-41" value="&lt;font style=&quot;font-size: 24px;&quot;&gt;計算存儲一體化内存池數據共享&lt;br&gt;&lt;/font&gt;" style="rounded=0;whiteSpace=wrap;html=1;fillColor=#FFF4C3;strokeColor=none;" vertex="1" parent="hp1ZqnCWCo9bEnDBB-Sz-37">
          <mxGeometry x="20" y="140" width="170" height="60" as="geometry" />
        </mxCell>
        <mxCell id="hp1ZqnCWCo9bEnDBB-Sz-42" value="&lt;span style=&quot;font-size: 24px;&quot;&gt;構建網絡拓撲預測集群交換數據&lt;/span&gt;" style="rounded=0;whiteSpace=wrap;html=1;fillColor=#FFF4C3;strokeColor=none;" vertex="1" parent="hp1ZqnCWCo9bEnDBB-Sz-37">
          <mxGeometry x="20" y="240" width="170" height="60" as="geometry" />
        </mxCell>
        <mxCell id="hp1ZqnCWCo9bEnDBB-Sz-43" value="&lt;span style=&quot;font-size: 24px;&quot;&gt;增强負載與平&lt;br&gt;臺軟硬件融合&lt;/span&gt;" style="rounded=0;whiteSpace=wrap;html=1;fillColor=#FFF4C3;strokeColor=none;" vertex="1" parent="hp1ZqnCWCo9bEnDBB-Sz-37">
          <mxGeometry x="20" y="340" width="170" height="60" as="geometry" />
        </mxCell>
        <mxCell id="hp1ZqnCWCo9bEnDBB-Sz-44" value="" style="group" vertex="1" connectable="0" parent="1">
          <mxGeometry x="710" y="360" width="210" height="480" as="geometry" />
        </mxCell>
        <mxCell id="hp1ZqnCWCo9bEnDBB-Sz-45" value="" style="rounded=0;whiteSpace=wrap;html=1;fillColor=#D4E1F5;" vertex="1" parent="hp1ZqnCWCo9bEnDBB-Sz-44">
          <mxGeometry width="210" height="440" as="geometry" />
        </mxCell>
        <mxCell id="hp1ZqnCWCo9bEnDBB-Sz-46" value="&lt;font style=&quot;font-size: 36px;&quot;&gt;創新成果&lt;/font&gt;" style="text;html=1;strokeColor=none;fillColor=none;align=center;verticalAlign=middle;whiteSpace=wrap;rounded=0;" vertex="1" parent="hp1ZqnCWCo9bEnDBB-Sz-44">
          <mxGeometry x="25" y="450" width="160" height="30" as="geometry" />
        </mxCell>
        <mxCell id="hp1ZqnCWCo9bEnDBB-Sz-47" value="&lt;font style=&quot;font-size: 24px;&quot;&gt;構建混&lt;/font&gt;&lt;span style=&quot;font-size: 24px;&quot;&gt;合存儲&lt;/span&gt;&lt;span style=&quot;font-size: 24px;&quot;&gt;&lt;br&gt;新型文件系統&lt;/span&gt;" style="rounded=0;whiteSpace=wrap;html=1;fillColor=#FFF4C3;strokeColor=none;" vertex="1" parent="hp1ZqnCWCo9bEnDBB-Sz-44">
          <mxGeometry x="20" y="40" width="170" height="60" as="geometry" />
        </mxCell>
        <mxCell id="hp1ZqnCWCo9bEnDBB-Sz-48" value="&lt;span style=&quot;font-size: 24px;&quot;&gt;實現全新的動態内存分配策略&lt;/span&gt;" style="rounded=0;whiteSpace=wrap;html=1;fillColor=#FFF4C3;strokeColor=none;" vertex="1" parent="hp1ZqnCWCo9bEnDBB-Sz-44">
          <mxGeometry x="20" y="140" width="170" height="60" as="geometry" />
        </mxCell>
        <mxCell id="hp1ZqnCWCo9bEnDBB-Sz-49" value="&lt;span style=&quot;font-size: 24px;&quot;&gt;避免大規模數&lt;br&gt;據移動和交換&lt;/span&gt;" style="rounded=0;whiteSpace=wrap;html=1;fillColor=#FFF4C3;strokeColor=none;" vertex="1" parent="hp1ZqnCWCo9bEnDBB-Sz-44">
          <mxGeometry x="20" y="240" width="170" height="60" as="geometry" />
        </mxCell>
        <mxCell id="hp1ZqnCWCo9bEnDBB-Sz-50" value="&lt;span style=&quot;font-size: 24px;&quot;&gt;打破應用軟件和硬件的信息壁壘&lt;/span&gt;" style="rounded=0;whiteSpace=wrap;html=1;fillColor=#FFF4C3;strokeColor=none;" vertex="1" parent="hp1ZqnCWCo9bEnDBB-Sz-44">
          <mxGeometry x="20" y="340" width="170" height="60" as="geometry" />
        </mxCell>
      </root>
    </mxGraphModel>
  </diagram>
</mxfile>
